<svg id="Layer_1" data-name="Layer 1" xmlns="http://www.w3.org/2000/svg" viewBox="0 0 512 512"><defs><style>.cls-1{fill:#3d464d;}</style></defs><title>11</title><path class="cls-1" d="M401.57,91a2,2,0,1,0,2.83-2.83l-3.67-3.67a2,2,0,1,0-2.83,2.83Z"/><path class="cls-1" d="M414.36,103.82a2,2,0,0,0,2.83-2.82l-3.67-3.68a2,2,0,0,0-2.83,2.83Z"/><path class="cls-1" d="M412.1,91.62a2,2,0,0,0,1.42-.59l3.67-3.67a2,2,0,0,0-2.83-2.83l-3.67,3.67a2,2,0,0,0,1.41,3.42Z"/><path class="cls-1" d="M399.31,104.41a2,2,0,0,0,1.42-.59l3.67-3.67a2,2,0,1,0-2.83-2.83L397.9,101a2,2,0,0,0,1.41,3.41Z"/><path class="cls-1" d="M178.18,204.66a2,2,0,0,0,1.41.59,2,2,0,0,0,1.42-3.42l-3.68-3.67a2,2,0,0,0-2.82,2.83Z"/><path class="cls-1" d="M191,217.45a2,2,0,0,0,2.83-2.83L190.13,211a2,2,0,0,0-2.83,2.83Z"/><path class="cls-1" d="M188.71,205.25a2,2,0,0,0,1.42-.59L193.8,201a2,2,0,0,0-2.83-2.83l-3.67,3.67a2,2,0,0,0,1.41,3.42Z"/><path class="cls-1" d="M175.92,218a2,2,0,0,0,1.41-.59l3.68-3.67a2,2,0,0,0-2.83-2.83l-3.67,3.67a2,2,0,0,0,1.41,3.42Z"/><path class="cls-1" d="M68,97.68a57.22,57.22,0,0,1,57.15,57.15V383.06a18.52,18.52,0,0,0,18.5,18.5h22.3a27.27,27.27,0,1,0,36.44,0H370.28a27.28,27.28,0,1,0,36.43,0H429a18.52,18.52,0,0,0,18.5-18.5V351.69a3.5,3.5,0,0,0-3.5-3.5H342.14a12,12,0,0,0,1.07-4.94V259.9a12.12,12.12,0,0,0-12.1-12.1H256.88l-.4-.37a2,2,0,0,0-2.82-.1,2,2,0,0,0-.36.47H230.21a12.12,12.12,0,0,0-12.1,12.1v83.35a12,12,0,0,0,1.06,4.94h-87V154.83A64.23,64.23,0,0,0,68,90.68a3.5,3.5,0,0,0,0,7ZM204.42,421.83a20.27,20.27,0,1,1-20.27-20.27A20.3,20.3,0,0,1,204.42,421.83Zm204.35,0a20.27,20.27,0,1,1-20.27-20.27A20.3,20.3,0,0,1,408.77,421.83Zm31.75-38.77a11.51,11.51,0,0,1-11.5,11.5H143.63a11.51,11.51,0,0,1-11.5-11.5V355.19H440.52ZM268.43,254.8h24.45v15.76H268.43Zm-43.32,88.45V259.9a5.1,5.1,0,0,1,5.1-5.1h31.22v19.26a3.5,3.5,0,0,0,3.5,3.5h31.45a3.5,3.5,0,0,0,3.5-3.5V254.8h31.23a5.11,5.11,0,0,1,5.1,5.1v83.35a5.1,5.1,0,0,1-3.91,4.94H229A5.1,5.1,0,0,1,225.11,343.25Z"/><path class="cls-1" d="M184.15,432.67a10.84,10.84,0,0,0,0-21.68,2,2,0,1,0,0,4,6.84,6.84,0,1,1-6.84,6.84,2,2,0,0,0-4,0A10.86,10.86,0,0,0,184.15,432.67Z"/><path class="cls-1" d="M388.51,432.66a10.73,10.73,0,0,0,5.36-1.42,10.86,10.86,0,0,0,4-14.79,2,2,0,1,0-3.47,2,6.85,6.85,0,1,1-9.34-2.54,2,2,0,1,0-2-3.48,10.84,10.84,0,0,0,5.39,20.25Z"/><path class="cls-1" d="M409,313.24a11.67,11.67,0,1,0-11.67-11.67A11.68,11.68,0,0,0,409,313.24Zm0-19.34a7.67,7.67,0,1,1-7.67,7.67A7.68,7.68,0,0,1,409,293.9Z"/><path class="cls-1" d="M380.35,159a11.67,11.67,0,1,0-11.67-11.67A11.68,11.68,0,0,0,380.35,159Zm0-19.34a7.67,7.67,0,1,1-7.67,7.67A7.68,7.68,0,0,1,380.35,139.69Z"/><path class="cls-1" d="M237.15,335.68h-1.79a2,2,0,1,0,0,4h1.79a2,2,0,1,0,0-4Z"/><path class="cls-1" d="M259.5,335.68h-1.79a2,2,0,1,0,0,4h1.79a2,2,0,0,0,0-4Z"/><path class="cls-1" d="M248.32,335.68h-1.78a2,2,0,0,0,0,4h1.78a2,2,0,0,0,0-4Z"/><path class="cls-1" d="M358.18,182.74a2,2,0,0,0-4,0v4.91a2,2,0,1,0,4,0Z"/><path class="cls-1" d="M358.18,197.47a2,2,0,1,0-4,0v4.91a2,2,0,0,0,4,0Z"/><path class="cls-1" d="M342.33,165.43h4.91a2,2,0,0,0,0-4h-4.91a2,2,0,0,0,0,4Z"/><path class="cls-1" d="M312.86,165.43h4.91a2,2,0,0,0,0-4h-4.91a2,2,0,0,0,0,4Z"/><path class="cls-1" d="M254.71,219.92a2,2,0,0,0-4,0v4.91a2,2,0,0,0,4,0Z"/><path class="cls-1" d="M327.59,165.43h4.91a2,2,0,0,0,0-4h-4.91a2,2,0,0,0,0,4Z"/><path class="cls-1" d="M347.57,249.52h-4.91a2,2,0,0,0,0,4h4.95a2,2,0,0,0,2-2A2,2,0,0,0,347.57,249.52Z"/><path class="cls-1" d="M358.18,212.2a2,2,0,0,0-4,0v4.92a2,2,0,0,0,4,0Z"/><path class="cls-1" d="M358.18,226.94a2,2,0,0,0-4,0v4.91a2,2,0,0,0,4,0Z"/><path class="cls-1" d="M354.18,172v.88a2,2,0,1,0,4,0V172a10.56,10.56,0,0,0-1.14-4.79,2,2,0,1,0-3.57,1.81A6.51,6.51,0,0,1,354.18,172Z"/><path class="cls-1" d="M356.18,239.67a2,2,0,0,0-2,2v1.25a6.49,6.49,0,0,1-.59,2.72,2,2,0,0,0,1,2.65,1.89,1.89,0,0,0,.83.18,2,2,0,0,0,1.82-1.17,10.46,10.46,0,0,0,.95-4.38v-1.25A2,2,0,0,0,356.18,239.67Z"/><path class="cls-1" d="M254.71,175.72a2,2,0,0,0-4,0v4.91a2,2,0,0,0,4,0Z"/><path class="cls-1" d="M254.71,205.19a2,2,0,0,0-4,0v4.91a2,2,0,0,0,4,0Z"/><path class="cls-1" d="M254.71,190.46a2,2,0,0,0-4,0v4.91a2,2,0,0,0,4,0Z"/><path class="cls-1" d="M252.71,232.66a2,2,0,0,0-2,2v4.91a2,2,0,0,0,4,0v-4.91A2,2,0,0,0,252.71,232.66Z"/><path class="cls-1" d="M320.22,169a2,2,0,0,0-4,0v2.5a2,2,0,1,0,4,0Z"/><path class="cls-1" d="M318.22,178.87a2,2,0,0,0-2,2v.5h-.5a2,2,0,0,0,0,4h2.5a2,2,0,0,0,2-2v-2.5A2,2,0,0,0,318.22,178.87Z"/><path class="cls-1" d="M300.19,183.37a2,2,0,0,0,2,2h4.51a2,2,0,0,0,0-4h-4.51A2,2,0,0,0,300.19,183.37Z"/><path class="cls-1" d="M288.67,183.37a2,2,0,0,0,2,2h2.5a2,2,0,0,0,0-4h-.5v-.5a2,2,0,0,0-4,0Z"/><path class="cls-1" d="M290.67,176.9a2,2,0,0,0,2-2v-3a2,2,0,0,0-4,0v3A2,2,0,0,0,290.67,176.9Z"/><path class="cls-1" d="M264.76,237.11a2,2,0,0,0,0,4h1.56a2,2,0,0,0,0-4Z"/><path class="cls-1" d="M284.34,237.11a2,2,0,0,0,0,4h1.56a2,2,0,0,0,0-4Z"/><path class="cls-1" d="M274.55,237.11a2,2,0,0,0,0,4h1.56a2,2,0,0,0,0-4Z"/><path class="cls-1" d="M223.09,166.93h29.78a2,2,0,0,0,1.93,1.48,2,2,0,0,0,1.52-.69,6.13,6.13,0,0,1,.82-.79h31.8a2,2,0,0,0,3.45,0h.28a11.94,11.94,0,0,0,5.82-1.5H303a2,2,0,0,0,0-4h-.24a12,12,0,0,0,2-6.6V98.15a12.12,12.12,0,0,0-12.1-12.1H223.09A12.12,12.12,0,0,0,211,98.15v56.68A12.12,12.12,0,0,0,223.09,166.93Zm26.24-73.88h17.1v10.22h-17.1ZM218,98.15a5.11,5.11,0,0,1,5.1-5.1h20.24v13.22a3,3,0,0,0,3,3h23.1a3,3,0,0,0,3-3V93.05h20.24a5.11,5.11,0,0,1,5.1,5.1v56.68a5.11,5.11,0,0,1-5.1,5.1H223.09a5.11,5.11,0,0,1-5.1-5.1Z"/></svg>