<svg id="Layer_1" data-name="Layer 1" xmlns="http://www.w3.org/2000/svg" viewBox="0 0 512 512"><defs><style>.cls-1{fill:#3d464d;}</style></defs><title>15</title><path class="cls-1" d="M365,85.16l-3.67-3.67a2,2,0,1,0-2.83,2.82L362.16,88a2,2,0,0,0,1.42.58A2,2,0,0,0,365,88,2,2,0,0,0,365,85.16Z"/><path class="cls-1" d="M374.11,94.28a2,2,0,1,0-2.83,2.83l3.68,3.67A2,2,0,1,0,377.78,98Z"/><path class="cls-1" d="M377.78,81.49a2,2,0,0,0-2.82,0l-3.68,3.67a2,2,0,0,0,1.42,3.41,2,2,0,0,0,1.41-.58l3.67-3.68A2,2,0,0,0,377.78,81.49Z"/><path class="cls-1" d="M362.16,94.28,358.49,98a2,2,0,0,0,0,2.83,2,2,0,0,0,2.83,0L365,97.11a2,2,0,1,0-2.83-2.83Z"/><path class="cls-1" d="M103.16,413.79a2,2,0,0,0-2.83,2.83l3.67,3.67a2,2,0,0,0,1.42.59,2,2,0,0,0,1.41-3.42Z"/><path class="cls-1" d="M116,426.58a2,2,0,1,0-2.83,2.83l3.68,3.68a2,2,0,0,0,1.41.58,2,2,0,0,0,1.42-3.41Z"/><path class="cls-1" d="M116.8,413.79l-3.68,3.67a2,2,0,1,0,2.83,2.83l3.68-3.67a2,2,0,0,0-2.83-2.83Z"/><path class="cls-1" d="M104,426.58l-3.67,3.68a2,2,0,0,0,1.42,3.41,2,2,0,0,0,1.41-.58l3.67-3.68a2,2,0,0,0-2.83-2.83Z"/><path class="cls-1" d="M83.8,109A11.68,11.68,0,1,0,95.48,97.36,11.69,11.69,0,0,0,83.8,109Zm19.35,0a7.68,7.68,0,1,1-7.67-7.68A7.68,7.68,0,0,1,103.15,109Z"/><path class="cls-1" d="M449,176.48v-.69a3.53,3.53,0,0,0-.4-1.59c-1.13-3.52-4.47-6.23-9.19-7.44l-7.91-2a23,23,0,0,0,8.42-5.9c3-3.48,4-7.47,2.76-11.25-1.43-4.51-5.81-8-12-9.6-10.58-2.72-23.57.65-29.58,7.69-2.78,3.24-3.79,6.94-2.94,10.48L287.47,127.7a23,23,0,0,0,8.42-5.9c3-3.48,3.95-7.47,2.76-11.25-1.43-4.51-5.81-8-12-9.6-10.59-2.72-23.58.65-29.58,7.68-2.77,3.25-3.79,6.94-2.94,10.49l-13.4-3.44c-7.8-2-17.42.52-21.89,5.74L207.24,135l-77,90.1C118,239.47,89.75,246.49,67.33,240.73h-.08c-.11,0-.23,0-.34-.06l-.37,0h-.08l-.22,0-.4,0-.3.08-.34.1a3,3,0,0,0-.31.15,2.64,2.64,0,0,0-.29.15l-.28.21a1.64,1.64,0,0,0-.25.21,2.61,2.61,0,0,0-.23.24,2.39,2.39,0,0,0-.21.26,3.21,3.21,0,0,0-.19.31,1.82,1.82,0,0,0-.15.27,2.46,2.46,0,0,0-.14.38c0,.07-.06.13-.08.21a.17.17,0,0,1,0,.07,2.2,2.2,0,0,0-.05.37,2,2,0,0,0,0,.35s0,.05,0,.08l0,126.5a3.5,3.5,0,0,0,3,3.44,72.49,72.49,0,0,0,17.83,2.13c20.35,0,41.31-7.62,51.95-20.06L145,345.32l22.89,5.88a3.7,3.7,0,0,0,.87.11,3.5,3.5,0,0,0,.87-6.89l-21.89-5.63V220.65l78.41,20.15-70.38,84.66A2,2,0,1,0,158.8,328l71.59-86.11,131.3,33.75.08,118-8-2.4a3,3,0,0,0-1.75.08l-17.37,7.93V356.16l18.62-8.51a2,2,0,1,0-1.66-3.64l-19,8.67-14.51-6.63,34.67-15.85.09-.05a1.22,1.22,0,0,0,.19-.12l.15-.1.15-.14.13-.14.12-.16.1-.18.06-.1s0,0,0-.06a1.59,1.59,0,0,0,.07-.2,1.21,1.21,0,0,0,0-.18,1.36,1.36,0,0,0,0-.2,1.11,1.11,0,0,0,0-.19,1.23,1.23,0,0,0,0-.19,1.11,1.11,0,0,0,0-.19,1.21,1.21,0,0,0,0-.18,1.18,1.18,0,0,0-.07-.2.64.64,0,0,0,0-.07l-.06-.1a1.74,1.74,0,0,0-.11-.18l-.11-.15-.13-.15-.15-.13-.15-.11-.18-.11-.1-.06-19.33-8.83a2,2,0,0,0-1.66,0l-38.65,17.66-.16.1-.09,0,0,0a2.37,2.37,0,0,0-.34.29h0a2.26,2.26,0,0,0-.26.37l-.06.11c0,.1-.09.21-.12.31l0,.14a1.49,1.49,0,0,0,0,.36s0,.05,0,.07v47.48a2,2,0,0,0,1.17,1.82l38.65,17.66.18.07.15,0a1.6,1.6,0,0,0,1,0l.15,0,.18-.07L349,397.08l15.41,4.63.2,0,.14,0a3.51,3.51,0,0,0,.55.05,3.08,3.08,0,0,0,.68-.08l.18,0a3.86,3.86,0,0,0,.48-.16l.19-.08a4.15,4.15,0,0,0,.53-.32l.05,0a3.3,3.3,0,0,0,.51-.48l.05,0,80.26-94.39s.07-.1.11-.15l.21-.3.16-.29c.05-.11.09-.21.13-.32s.08-.22.11-.33l.06-.32c0-.13,0-.25,0-.38s0-.11,0-.17V176.48Zm-42.6-26.27c3.26-3.81,10-6.17,16.58-6.17a23.69,23.69,0,0,1,5.94.72c3.76,1,6.41,2.81,7.08,4.93.56,1.78-.45,3.48-1.4,4.59-4.27,5-14.59,7.49-22.52,5.46-3.77-1-6.41-2.82-7.08-4.94C404.47,153,405.49,151.32,406.44,150.21ZM332.61,321.75l14.52,6.63-33.84,15.47-14.52-6.64ZM296,340.33l15.33,7v10.28a2,2,0,0,0,4,0v-8.45l15.32,7v43.08L296,383.41ZM258.69,242l29.56-34.61,51.25,13.17L315.64,247.9a2,2,0,0,0,3,2.63l25.17-28.9,49.67,12.76L363.94,269ZM149.13,213.79l29.56-34.61,49.63,12.75-24.73,28.41a2,2,0,0,0,1.5,3.32,2,2,0,0,0,1.51-.69l26.05-29.92,51.29,13.18-29.56,34.61Zm62-72.6L260.81,154l-29.57,34.61-49.66-12.77ZM396.4,231l-49.66-12.77,29.56-34.6L426,196.4Zm-54-13.88L291.15,204l24.3-28.44a2,2,0,0,0-3-2.6l-25.58,29.93-51.27-13.18,29.56-34.6L372,182.53Zm26.26,57.09,28-32.82v54.47l-21.56,25.25a2,2,0,0,0,.22,2.81,1.92,1.92,0,0,0,1.29.48,2,2,0,0,0,1.53-.7L396.72,302v53.92l-28,32.88Zm32,23.12,26.07-30.51v53.76l-26.07,30.65Zm30.07-35.2L442,249v53.68l-11.25,13.22ZM442,242.82,430.79,256V221.11a2,2,0,0,0-4,0v39.56l-26.07,30.51V236.72l34.21-40h0l7.1-8.32ZM261,117.77c-.56-1.78.45-3.48,1.4-4.59,3.26-3.81,10-6.17,16.58-6.17a23.69,23.69,0,0,1,5.94.72c3.76,1,6.41,2.81,7.08,4.93.56,1.78-.45,3.48-1.4,4.59-4.27,5-14.58,7.49-22.52,5.46h0C264.28,121.73,261.64,119.89,261,117.77ZM224.14,126c2.74-3.2,9.67-4.84,14.83-3.51l27.32,7h0l171.4,44.06c2.71.7,4,1.94,4.26,2.79a2.58,2.58,0,0,1-.79,2.25L431,190.47,216.21,135.26ZM130.4,351.58C118.57,365.43,92,372.45,70,367.82l0-119.35a75.69,75.69,0,0,0,13.69,1.22c20.35,0,41.32-7.62,51.95-20.07l5.1-6V339.52Z"/><path class="cls-1" d="M281.93,360.2l-.07-.25c-.06-.18-.13-.35-.21-.53l-.1-.2a3.25,3.25,0,0,0-.46-.64l0,0a4,4,0,0,0-.59-.5s0,0-.07-.05-.1,0-.15-.07a2.61,2.61,0,0,0-.28-.17L229.3,334.61a3.52,3.52,0,0,0-2.91,0l-32.24,14.74h0l-18.43,8.42a2.61,2.61,0,0,0-.28.17l-.15.07s0,0-.07.05a4,4,0,0,0-.59.5l0,0a3.25,3.25,0,0,0-.46.64l-.1.2c-.08.18-.15.35-.21.53a2.27,2.27,0,0,0-.06.25,2.57,2.57,0,0,0-.08.62.69.69,0,0,0,0,.13v62.26a3.5,3.5,0,0,0,2,3.18l50.68,23.16h0a3.33,3.33,0,0,0,.63.21l.16,0a3.7,3.7,0,0,0,.66.07,3.59,3.59,0,0,0,.65-.07l.17,0a3.48,3.48,0,0,0,.62-.21h0L280,426.39a3.5,3.5,0,0,0,2-3.18V361a.69.69,0,0,0,0-.13A3.18,3.18,0,0,0,281.93,360.2Zm-54.08,20.06-16.91-7.73,42.24-19.31L270.1,361Zm0-38.61,16.91,7.73-42.24,19.31L185.59,361l11.46-5.23h0ZM180.67,366.4,199,374.78V387.7a3.5,3.5,0,1,0,7,0V378l18.34,8.38v54.56l-43.68-20ZM275,421l-43.67,20V386.36l43.67-20Z"/><path class="cls-1" d="M285,323.25l11.26-25.38a2,2,0,0,0-.33-2.13l-20.57-23.23-.06-.05a1.55,1.55,0,0,0-.27-.24l-.11-.07a1.82,1.82,0,0,0-.31-.16l-.1,0a2,2,0,0,0-.91-.09h0l-.09,0-.19,0L246.73,280a2,2,0,0,0-1.25,1.1l-11.25,25.38a1.77,1.77,0,0,0-.06.17s0,.06,0,.1a.11.11,0,0,1,0,.05,2.12,2.12,0,0,0-.06.43h0a1.75,1.75,0,0,0,0,.46s0,.08,0,.12a1.92,1.92,0,0,0,.11.31l.06.12a1.61,1.61,0,0,0,.21.3.25.25,0,0,0,0,.07l20.57,23.22a2,2,0,0,0,1.49.67,2.39,2.39,0,0,0,.59-.08l26.55-8.11.1,0,.23-.1.21-.13.19-.15a1.49,1.49,0,0,0,.18-.17l.15-.2a1.59,1.59,0,0,0,.13-.22A.41.41,0,0,0,285,323.25Zm-2.39-4.47-.1-.11L265,298.85l9.47-21.36,17.65,19.94Zm-33.84-35.19L270.26,277l-9.11,20.54-21.49,6.56Zm8.5,44.66-17.65-19.93L262,301.5l17.66,19.94Z"/></svg>