<svg id="Layer_1" data-name="Layer 1" xmlns="http://www.w3.org/2000/svg" viewBox="0 0 512 512"><defs><style>.cls-1{fill:#3d464d;}</style></defs><title>14</title><path class="cls-1" d="M424.15,211.06a10.66,10.66,0,1,0-10.66-10.66A10.67,10.67,0,0,0,424.15,211.06Zm0-17.32a6.66,6.66,0,1,1-6.66,6.66A6.66,6.66,0,0,1,424.15,193.74Z"/><path class="cls-1" d="M95,285.37l-3.68-3.67a2,2,0,0,0-2.82,2.83l3.67,3.67a2,2,0,0,0,1.41.59A2,2,0,0,0,95,285.37Z"/><path class="cls-1" d="M104.11,294.49a2,2,0,1,0-2.83,2.83L105,301a2,2,0,1,0,2.83-2.82Z"/><path class="cls-1" d="M107.78,281.7a2,2,0,0,0-2.83,0l-3.67,3.67a2,2,0,1,0,2.83,2.83l3.67-3.67A2,2,0,0,0,107.78,281.7Z"/><path class="cls-1" d="M92.16,294.49l-3.67,3.68A2,2,0,1,0,91.31,301L95,297.32a2,2,0,1,0-2.83-2.83Z"/><path class="cls-1" d="M78.77,81,75.1,77.34a2,2,0,0,0-2.83,2.83l3.67,3.68A2,2,0,0,0,78.77,81Z"/><path class="cls-1" d="M85.06,93l3.67,3.67a2,2,0,0,0,1.42.58,2,2,0,0,0,1.41-.58,2,2,0,0,0,0-2.83l-3.67-3.67A2,2,0,0,0,85.06,93Z"/><path class="cls-1" d="M86.48,84.43a2,2,0,0,0,1.41-.58l3.67-3.68a2,2,0,1,0-2.83-2.83L85.06,81a2,2,0,0,0,1.42,3.41Z"/><path class="cls-1" d="M75.94,90.14l-3.67,3.67a2,2,0,0,0,0,2.83,2,2,0,0,0,1.41.58,2,2,0,0,0,1.42-.58L78.77,93a2,2,0,0,0-2.83-2.83Z"/><path class="cls-1" d="M430.54,335.12h-31a3.5,3.5,0,0,0,0,7h31a11.51,11.51,0,0,1,11.5,11.5v76.92a11.51,11.51,0,0,1-11.5,11.5H81.46A11.51,11.51,0,0,1,70,430.54V353.62a11.51,11.51,0,0,1,11.5-11.5h31a3.5,3.5,0,1,0,0-7h-31A18.52,18.52,0,0,0,63,353.62v76.92A18.52,18.52,0,0,0,81.46,449H430.54a18.52,18.52,0,0,0,18.5-18.5V353.62A18.52,18.52,0,0,0,430.54,335.12Z"/><path class="cls-1" d="M381.51,164.56a3.5,3.5,0,0,0-3.5,3.5V388.58H134V111.25H317.72a3.5,3.5,0,0,0,0-7H130.49a3.5,3.5,0,0,0-3.5,3.5V388.58H98.13a3.5,3.5,0,0,0,0,7H413.87a3.5,3.5,0,0,0,0-7H385V168.06A3.5,3.5,0,0,0,381.51,164.56Z"/><path class="cls-1" d="M186.8,197A27.81,27.81,0,1,0,159,169.22,27.84,27.84,0,0,0,186.8,197Zm0-48.62A20.81,20.81,0,1,1,166,169.22,20.84,20.84,0,0,1,186.8,148.41Z"/><path class="cls-1" d="M349.51,179.38H235a2,2,0,0,0,0,4H349.51a2,2,0,0,0,0-4Z"/><path class="cls-1" d="M235,159.06h50a2,2,0,0,0,0-4H235a2,2,0,1,0,0,4Z"/><path class="cls-1" d="M349.51,231.25h-187a2,2,0,0,0,0,4h187a2,2,0,0,0,0-4Z"/><path class="cls-1" d="M349.51,269.41h-187a2,2,0,0,0,0,4h187a2,2,0,0,0,0-4Z"/><path class="cls-1" d="M349.51,307.57h-187a2,2,0,0,0,0,4h187a2,2,0,0,0,0-4Z"/><path class="cls-1" d="M349.51,345.73h-187a2,2,0,0,0,0,4h187a2,2,0,0,0,0-4Z"/><path class="cls-1" d="M378.14,63.42a44.33,44.33,0,1,0,44.32,44.33A44.38,44.38,0,0,0,378.14,63.42Zm0,81.65a37.33,37.33,0,1,1,37.32-37.32A37.36,37.36,0,0,1,378.14,145.07Z"/><path class="cls-1" d="M393.61,94.88l-19.93,19.93-11-11a2,2,0,0,0-2.83,2.83l12.44,12.43a2,2,0,0,0,1.41.59,2,2,0,0,0,1.42-.59l21.34-21.34a2,2,0,0,0-2.83-2.83Z"/></svg>