<svg id="Layer_1" data-name="Layer 1" xmlns="http://www.w3.org/2000/svg" viewBox="0 0 512 512"><defs><style>.cls-1{fill:#3d464d;}</style></defs><title>16</title><path class="cls-1" d="M252.5,66.46v64a3.5,3.5,0,0,0,7,0v-64a3.5,3.5,0,1,0-7,0Z"/><path class="cls-1" d="M150.06,88.66a3.49,3.49,0,0,0,0,5l52.72,52.71a3.5,3.5,0,0,0,4.95-4.95L155,88.66A3.49,3.49,0,0,0,150.06,88.66Z"/><path class="cls-1" d="M357,88.66l-52.71,52.71a3.5,3.5,0,0,0,5,4.95l52.71-52.71a3.5,3.5,0,1,0-4.95-5Z"/><path class="cls-1" d="M412,421a10.66,10.66,0,1,0,10.67,10.66A10.68,10.68,0,0,0,412,421Zm0,17.32a6.66,6.66,0,1,1,6.67-6.66A6.67,6.67,0,0,1,412,438.33Z"/><path class="cls-1" d="M108,169.22a10.66,10.66,0,1,0-10.66,10.66A10.67,10.67,0,0,0,108,169.22Zm-17.32,0a6.66,6.66,0,1,1,6.66,6.66A6.67,6.67,0,0,1,90.63,169.22Z"/><path class="cls-1" d="M400.63,159.1,397,155.43a2,2,0,1,0-2.82,2.83l3.67,3.67a2,2,0,0,0,1.41.59,2,2,0,0,0,1.42-3.42Z"/><path class="cls-1" d="M409.75,168.22a2,2,0,0,0-2.83,2.83l3.67,3.67a2,2,0,1,0,2.83-2.83Z"/><path class="cls-1" d="M413.42,155.43a2,2,0,0,0-2.83,0l-3.67,3.67a2,2,0,0,0,1.41,3.42,2,2,0,0,0,1.42-.59l3.67-3.67A2,2,0,0,0,413.42,155.43Z"/><path class="cls-1" d="M397.8,168.22l-3.67,3.67a2,2,0,1,0,2.82,2.83l3.68-3.67a2,2,0,1,0-2.83-2.83Z"/><path class="cls-1" d="M83.49,415l-3.68-3.68A2,2,0,1,0,77,414.19l3.68,3.68a2,2,0,0,0,1.41.58A2,2,0,0,0,83.49,415Z"/><path class="cls-1" d="M92.6,424.16A2,2,0,0,0,89.78,427l3.67,3.68a2,2,0,0,0,2.83,0,2,2,0,0,0,0-2.83Z"/><path class="cls-1" d="M96.28,411.36a2,2,0,0,0-2.83,0L89.78,415a2,2,0,0,0,0,2.83,2,2,0,0,0,2.82,0l3.68-3.68A2,2,0,0,0,96.28,411.36Z"/><path class="cls-1" d="M80.66,424.16,77,427.83a2,2,0,0,0,1.42,3.41,2,2,0,0,0,1.41-.58L83.49,427a2,2,0,0,0-2.83-2.82Z"/><path class="cls-1" d="M276.8,410.84,274.22,412a3.5,3.5,0,0,0,1.46,6.69,3.55,3.55,0,0,0,1.45-.32l2.59-1.19a3.5,3.5,0,1,0-2.92-6.36Z"/><path class="cls-1" d="M309.18,396l-2.58,1.19a3.5,3.5,0,1,0,2.92,6.36l2.58-1.18a3.5,3.5,0,0,0-2.92-6.37Z"/><path class="cls-1" d="M293,403.42l-2.58,1.18a3.5,3.5,0,1,0,2.92,6.36l2.58-1.18a3.5,3.5,0,1,0-2.92-6.36Z"/><path class="cls-1" d="M390.73,326.46a3.5,3.5,0,0,0-3.5,3.5V380.6L259.5,440.93V305.53L278,363.86a3.54,3.54,0,0,0,1.93,2.15,3.47,3.47,0,0,0,1.41.3,3.43,3.43,0,0,0,1.47-.33l132.82-61.72a3.52,3.52,0,0,0,1.87-4.21l-23.41-76a2.25,2.25,0,0,0-.08-.24,3.46,3.46,0,0,0-1.38-1.71h0l-.24-.15h0l-.23-.11-134.71-60-.08,0-.36-.12-.31-.08a1.86,1.86,0,0,0-.34,0l-.33,0-.33,0a2.09,2.09,0,0,0-.35,0l-.3.08-.36.12-.08,0-134.72,60-.1.05a4.76,4.76,0,0,0-.49.28,3.42,3.42,0,0,0-1.27,1.64,2.25,2.25,0,0,0-.08.24l-23.41,76a3.52,3.52,0,0,0,1.87,4.21L229.2,366a3.43,3.43,0,0,0,1.47.33,3.47,3.47,0,0,0,1.41-.3,3.54,3.54,0,0,0,1.93-2.15l18.49-58.33v135.4L124.77,380.6V330a3.5,3.5,0,0,0-7,0v52.85a3.5,3.5,0,0,0,2,3.17L254.5,449.62h0l.08,0,.12,0,.45.14.09,0,.1,0a3.26,3.26,0,0,0,.62.06h0a3.26,3.26,0,0,0,.62-.06l.1,0,.09,0,.45-.14.12,0,.08,0h0L392.22,386a3.5,3.5,0,0,0,2-3.17V330A3.5,3.5,0,0,0,390.73,326.46Zm19.17-27.27L283.46,358,261.13,287.5l127.42-57.58ZM254,169.8v99.79a2,2,0,0,0,4,0V169.8l124.18,55.32-126.1,57h-.16l-126.1-57ZM228.54,358,102.1,299.19l21.35-69.27L250.87,287.5Z"/></svg>