<svg id="Layer_1" data-name="Layer 1" xmlns="http://www.w3.org/2000/svg" viewBox="0 0 512 512"><defs><style>.cls-1{fill:#3d464d;}</style></defs><title>13</title><path class="cls-1" d="M415.79,284.62A10.67,10.67,0,1,0,405.13,274,10.68,10.68,0,0,0,415.79,284.62Zm0-17.33a6.67,6.67,0,1,1-6.66,6.67A6.67,6.67,0,0,1,415.79,267.29Z"/><path class="cls-1" d="M434,168.23l-3.67-3.67a2,2,0,0,0-2.83,2.83l3.67,3.67a2,2,0,0,0,1.42.59,2,2,0,0,0,1.41-3.42Z"/><path class="cls-1" d="M443.15,177.35a2,2,0,0,0-2.83,2.83l3.68,3.67a2,2,0,0,0,2.82,0,2,2,0,0,0,0-2.82Z"/><path class="cls-1" d="M444,164.56l-3.68,3.67a2,2,0,1,0,2.83,2.83l3.67-3.67a2,2,0,0,0-2.82-2.83Z"/><path class="cls-1" d="M431.2,177.35,427.53,181a2,2,0,0,0,0,2.82,2,2,0,0,0,2.83,0l3.67-3.67a2,2,0,1,0-2.83-2.83Z"/><path class="cls-1" d="M85.13,137.87l-3.68-3.67A2,2,0,0,0,78.62,137l3.68,3.68a2,2,0,0,0,1.41.58,2,2,0,0,0,1.42-3.41Z"/><path class="cls-1" d="M94.24,147a2,2,0,0,0-2.82,2.83l3.67,3.67a2,2,0,0,0,2.83,0,2,2,0,0,0,0-2.83Z"/><path class="cls-1" d="M97.92,134.2a2,2,0,0,0-2.83,0l-3.67,3.67a2,2,0,0,0,2.82,2.83L97.92,137A2,2,0,0,0,97.92,134.2Z"/><path class="cls-1" d="M82.3,147l-3.68,3.67A2,2,0,0,0,80,154.07a2,2,0,0,0,1.41-.58l3.68-3.67A2,2,0,1,0,82.3,147Z"/><path class="cls-1" d="M422.46,107.75a44.32,44.32,0,1,0-44.32,44.32A44.38,44.38,0,0,0,422.46,107.75Zm-44.32,37.32a37.33,37.33,0,1,1,37.32-37.32A37.36,37.36,0,0,1,378.14,145.07Z"/><path class="cls-1" d="M392.07,93.81a2,2,0,0,0-2.82,0l-11.11,11.11L367,93.81a2,2,0,0,0-2.83,2.83l11.11,11.11-11.11,11.1a2,2,0,1,0,2.83,2.83l11.11-11.11,11.11,11.11a2,2,0,0,0,2.82-2.83L381,107.75l11.1-11.11A2,2,0,0,0,392.07,93.81Z"/><path class="cls-1" d="M430.54,335.12h-31a3.5,3.5,0,0,0,0,7h31a11.51,11.51,0,0,1,11.5,11.5v76.92a11.51,11.51,0,0,1-11.5,11.5H81.46A11.51,11.51,0,0,1,70,430.54V353.62a11.51,11.51,0,0,1,11.5-11.5h31a3.5,3.5,0,1,0,0-7h-31A18.52,18.52,0,0,0,63,353.62v76.92A18.52,18.52,0,0,0,81.46,449H430.54a18.52,18.52,0,0,0,18.5-18.5V353.62A18.52,18.52,0,0,0,430.54,335.12Z"/><path class="cls-1" d="M381.51,164.56a3.5,3.5,0,0,0-3.5,3.5V388.58H134V111.25H317.72a3.5,3.5,0,0,0,0-7H130.49a3.5,3.5,0,0,0-3.5,3.5V388.58H98.13a3.5,3.5,0,0,0,0,7H413.87a3.5,3.5,0,0,0,0-7H385V168.06A3.5,3.5,0,0,0,381.51,164.56Z"/><path class="cls-1" d="M186.8,197A27.81,27.81,0,1,0,159,169.22,27.84,27.84,0,0,0,186.8,197Zm0-48.62A20.81,20.81,0,1,1,166,169.22,20.84,20.84,0,0,1,186.8,148.41Z"/><path class="cls-1" d="M349.51,179.38H235a2,2,0,0,0,0,4H349.51a2,2,0,0,0,0-4Z"/><path class="cls-1" d="M235,159.06h50a2,2,0,0,0,0-4H235a2,2,0,1,0,0,4Z"/><path class="cls-1" d="M349.51,231.25h-187a2,2,0,0,0,0,4h187a2,2,0,0,0,0-4Z"/><path class="cls-1" d="M349.51,269.41h-187a2,2,0,0,0,0,4h187a2,2,0,0,0,0-4Z"/><path class="cls-1" d="M349.51,307.57h-187a2,2,0,0,0,0,4h187a2,2,0,0,0,0-4Z"/><path class="cls-1" d="M349.51,345.73h-187a2,2,0,0,0,0,4h187a2,2,0,0,0,0-4Z"/></svg>