<svg id="Layer_1" data-name="Layer 1" xmlns="http://www.w3.org/2000/svg" viewBox="0 0 512 512"><defs><style>.cls-1{fill:#3d464d;}</style></defs><title>10</title><path class="cls-1" d="M68,134.35a50.86,50.86,0,0,1,50.81,50.81V388a18.52,18.52,0,0,0,18.5,18.5h17.48a24.79,24.79,0,1,0,34.48,0H337.76a24.79,24.79,0,1,0,34.47,0h17.49a18.52,18.52,0,0,0,18.5-18.5V268.22a3.5,3.5,0,0,0-7,0V358H336.11V286.62h56a2,2,0,0,0,0-4h-56V221.8a2,2,0,0,0-4,0v60.82h-66.6V211.3H344.3a3.5,3.5,0,0,0,0-7H125.79V185.16A57.87,57.87,0,0,0,68,127.35a3.5,3.5,0,1,0,0,7ZM190.9,358H125.79V286.62H190.9Zm-1.1,66.3A17.79,17.79,0,1,1,172,406.47,17.81,17.81,0,0,1,189.8,424.25Zm183,0A17.79,17.79,0,1,1,355,406.47,17.81,17.81,0,0,1,372.78,424.25ZM401.22,388a11.51,11.51,0,0,1-11.5,11.5H137.29a11.51,11.51,0,0,1-11.5-11.5V365H401.22ZM194.9,358V286.62h66.61v60.83a2,2,0,1,0,4,0V286.62h66.6V358ZM261.51,211.3v71.32H194.9V219.8a2,2,0,0,0-4,0v62.82H125.79V211.3Z"/><path class="cls-1" d="M172,434.17a9.92,9.92,0,1,0,0-19.83,2,2,0,1,0,0,4,5.92,5.92,0,1,1-5.92,5.91,2,2,0,0,0-4,0A9.93,9.93,0,0,0,172,434.17Z"/><path class="cls-1" d="M355,434.17a9.93,9.93,0,0,0,8.6-14.84,2,2,0,1,0-3.47,2,5.92,5.92,0,1,1-8.08-2.2,2,2,0,0,0-2-3.48A9.92,9.92,0,0,0,355,434.17Z"/><path class="cls-1" d="M86.48,261.76a10.66,10.66,0,1,0,10.66,10.66A10.68,10.68,0,0,0,86.48,261.76Zm0,17.32a6.66,6.66,0,1,1,6.66-6.66A6.67,6.67,0,0,1,86.48,279.08Z"/><path class="cls-1" d="M231.17,167.54a10.66,10.66,0,1,0-10.66-10.66A10.67,10.67,0,0,0,231.17,167.54Zm0-17.32a6.66,6.66,0,1,1-6.66,6.66A6.67,6.67,0,0,1,231.17,150.22Z"/><path class="cls-1" d="M130.89,71.55a2,2,0,0,0,2.83,0,2,2,0,0,0,0-2.83L130,65.05a2,2,0,0,0-2.82,2.83Z"/><path class="cls-1" d="M143.68,84.34a2,2,0,1,0,2.83-2.83l-3.67-3.67A2,2,0,0,0,140,80.67Z"/><path class="cls-1" d="M141.42,72.13a2,2,0,0,0,1.42-.58l3.67-3.67a2,2,0,0,0-2.83-2.83L140,68.72a2,2,0,0,0,0,2.83A2,2,0,0,0,141.42,72.13Z"/><path class="cls-1" d="M128.63,84.93a2,2,0,0,0,1.41-.59l3.68-3.67a2,2,0,1,0-2.83-2.83l-3.67,3.67a2,2,0,0,0,1.41,3.42Z"/><path class="cls-1" d="M338.32,105.6a2,2,0,0,0,1.42.59,2,2,0,0,0,1.41-3.42l-3.67-3.67a2,2,0,0,0-2.83,2.83Z"/><path class="cls-1" d="M351.12,118.39a2,2,0,0,0,1.41.59,2,2,0,0,0,1.42-3.42l-3.68-3.67a2,2,0,0,0-2.83,2.83Z"/><path class="cls-1" d="M348.86,106.19a2,2,0,0,0,1.41-.59l3.68-3.67a2,2,0,0,0-2.83-2.83l-3.68,3.67a2,2,0,0,0,1.42,3.42Z"/><path class="cls-1" d="M336.07,119a2,2,0,0,0,1.41-.59l3.67-3.67a2,2,0,1,0-2.83-2.83l-3.67,3.67a2,2,0,0,0,1.42,3.42Z"/><path class="cls-1" d="M404.72,163.48A44.33,44.33,0,1,0,449,207.8,44.37,44.37,0,0,0,404.72,163.48Zm0,81.65A37.33,37.33,0,1,1,442,207.8,37.37,37.37,0,0,1,404.72,245.13Z"/><path class="cls-1" d="M418.65,193.87a2,2,0,0,0-2.83,0L404.72,205l-11.11-11.11a2,2,0,0,0-2.83,2.83l11.11,11.1-11.11,11.11a2,2,0,1,0,2.83,2.83l11.11-11.11,11.1,11.11a2,2,0,0,0,1.42.59,2,2,0,0,0,1.41-3.42L407.54,207.8l11.11-11.1A2,2,0,0,0,418.65,193.87Z"/></svg>