<svg id="Layer_1" data-name="Layer 1" xmlns="http://www.w3.org/2000/svg" viewBox="0 0 512 512"><defs><style>.cls-1{fill:#3d464d;}</style></defs><title>9</title><path class="cls-1" d="M66.46,97.62a57.21,57.21,0,0,1,57.15,57.15V383a18.52,18.52,0,0,0,18.5,18.5h22.31a27.28,27.28,0,1,0,36.43,0H368.76a27.27,27.27,0,1,0,36.44,0h22.3A18.52,18.52,0,0,0,446,383V351.63a3.5,3.5,0,0,0-3.5-3.5H130.61V154.77A64.23,64.23,0,0,0,66.46,90.62a3.5,3.5,0,1,0,0,7ZM202.91,421.77a20.27,20.27,0,1,1-20.27-20.27A20.3,20.3,0,0,1,202.91,421.77Zm204.34,0A20.27,20.27,0,1,1,387,401.5,20.3,20.3,0,0,1,407.25,421.77ZM439,383a11.51,11.51,0,0,1-11.5,11.5H142.11a11.51,11.51,0,0,1-11.5-11.5V355.13H439Z"/><path class="cls-1" d="M284.81,262.51a3.5,3.5,0,0,0,3.5-3.5V195a3.5,3.5,0,0,0-7,0v64A3.5,3.5,0,0,0,284.81,262.51Z"/><path class="cls-1" d="M231.59,274.9a3.5,3.5,0,0,0,4.95-4.95l-52.72-52.71a3.5,3.5,0,0,0-4.95,4.95Z"/><path class="cls-1" d="M335.56,275.92a3.51,3.51,0,0,0,2.48-1l52.71-52.71a3.5,3.5,0,0,0-4.95-4.95L333.09,270a3.5,3.5,0,0,0,2.47,6Z"/><path class="cls-1" d="M177.14,332H392.47a2,2,0,0,0,0-4H177.14a2,2,0,0,0,0,4Z"/><path class="cls-1" d="M182.64,432.61a10.84,10.84,0,1,0,0-21.68,2,2,0,1,0,0,4,6.84,6.84,0,1,1-6.85,6.84,2,2,0,0,0-4,0A10.86,10.86,0,0,0,182.64,432.61Z"/><path class="cls-1" d="M384.13,432.23a11.26,11.26,0,0,0,2.87.38,10.84,10.84,0,0,0,9.39-16.22,2,2,0,1,0-3.47,2A6.84,6.84,0,1,1,381,425.16a6.84,6.84,0,0,1,2.55-9.33,2,2,0,0,0-2-3.48,10.85,10.85,0,0,0,2.53,19.88Z"/><path class="cls-1" d="M388.27,85.78a10.66,10.66,0,1,0-10.66-10.66A10.67,10.67,0,0,0,388.27,85.78Zm0-17.32a6.66,6.66,0,1,1-6.66,6.66A6.66,6.66,0,0,1,388.27,68.46Z"/><path class="cls-1" d="M415.79,291.74a10.66,10.66,0,1,0-10.66-10.66A10.67,10.67,0,0,0,415.79,291.74Zm0-17.32a6.66,6.66,0,1,1-6.66,6.66A6.67,6.67,0,0,1,415.79,274.42Z"/><path class="cls-1" d="M202.45,167.54a10.66,10.66,0,1,0-10.66-10.66A10.68,10.68,0,0,0,202.45,167.54Zm0-17.32a6.66,6.66,0,1,1-6.66,6.66A6.67,6.67,0,0,1,202.45,150.22Z"/><path class="cls-1" d="M343.4,147.34a2,2,0,0,0,1.41.58,2,2,0,0,0,1.42-3.41l-3.68-3.67a2,2,0,1,0-2.83,2.83Z"/><path class="cls-1" d="M356.19,160.13A2,2,0,1,0,359,157.3l-3.68-3.67a2,2,0,1,0-2.82,2.83Z"/><path class="cls-1" d="M353.93,147.92a2,2,0,0,0,1.41-.58l3.68-3.67a2,2,0,1,0-2.83-2.83l-3.67,3.67a2,2,0,0,0,0,2.83A2,2,0,0,0,353.93,147.92Z"/><path class="cls-1" d="M341.14,160.72a2,2,0,0,0,1.41-.59l3.68-3.67a2,2,0,0,0-2.83-2.83l-3.68,3.67a2,2,0,0,0,1.42,3.42Z"/><path class="cls-1" d="M89.68,368.84,86,365.17A2,2,0,0,0,83.18,368l3.68,3.67a2,2,0,1,0,2.82-2.83Z"/><path class="cls-1" d="M101.06,385.05a2,2,0,0,0,1.42-3.42L98.8,378A2,2,0,0,0,96,380.79l3.67,3.67A2,2,0,0,0,101.06,385.05Z"/><path class="cls-1" d="M102.48,365.17a2,2,0,0,0-2.83,0L96,368.84a2,2,0,1,0,2.82,2.83l3.68-3.67A2,2,0,0,0,102.48,365.17Z"/><path class="cls-1" d="M89.68,380.79A2,2,0,1,0,86.86,378l-3.68,3.67A2,2,0,1,0,86,384.46Z"/></svg>