<svg id="Layer_1" data-name="Layer 1" xmlns="http://www.w3.org/2000/svg" viewBox="0 0 512 512"><defs><style>.cls-1{fill:#3d464d;}</style></defs><title>12</title><path class="cls-1" d="M117.27,185.16V388a18.52,18.52,0,0,0,18.5,18.5h17.49a24.79,24.79,0,1,0,34.47,0H336.24a24.79,24.79,0,1,0,34.48,0H388.2A18.52,18.52,0,0,0,406.7,388V268.22a3.5,3.5,0,0,0-7,0v14.4H344.59a2,2,0,0,0,0,4h10V350.9a5.11,5.11,0,0,1-5.11,5.11H334.59V268a2,2,0,0,0-4,0v88H264V296.68a2,2,0,0,0-4,0V356H245.11a5.1,5.1,0,0,1-5.1-5.11V296.62a3.5,3.5,0,0,0-7,0V350.9a12,12,0,0,0,2.28,7.05H193.38V286.62h54.24a2,2,0,0,0,0-4H240a2.4,2.4,0,0,0,0-.28V264.6a5.1,5.1,0,0,1,5.1-5.1h4.37a3.5,3.5,0,1,0,0-7h-4.37A12.12,12.12,0,0,0,233,264.6v17.74c0,.1,0,.19,0,.28H193.38V219.8a2,2,0,0,0-4,0v62.82H124.27V211.3H260v73.32a2,2,0,0,0,4,0V259.5h13.62v19.93a3.5,3.5,0,0,0,3.5,3.5h32.37a3.5,3.5,0,0,0,3.5-3.5V259.5h32.49a5.11,5.11,0,0,1,5.11,5.1v8a3.5,3.5,0,0,0,7,0v-8a12.12,12.12,0,0,0-12.11-12.1H264V211.3h66.6V244a2,2,0,0,0,4,0V211.3h8.19a3.5,3.5,0,0,0,0-7H124.27V185.16a57.87,57.87,0,0,0-57.81-57.81,3.5,3.5,0,1,0,0,7A50.86,50.86,0,0,1,117.27,185.16ZM310,259.5v16.43H284.61V259.5ZM188.28,424.25a17.79,17.79,0,1,1-17.79-17.78A17.81,17.81,0,0,1,188.28,424.25Zm183,0a17.79,17.79,0,1,1-17.79-17.78A17.81,17.81,0,0,1,371.27,424.25ZM399.7,388a11.51,11.51,0,0,1-11.5,11.5H135.77a11.51,11.51,0,0,1-11.5-11.5V365H399.7Zm0-101.35V358H359.29a12,12,0,0,0,2.29-7.05V286.62Zm-210.32,0V358H124.27V286.62Z"/><path class="cls-1" d="M170.49,434.17a9.92,9.92,0,1,0,0-19.83,2,2,0,1,0,0,4,5.92,5.92,0,1,1-5.91,5.91,2,2,0,0,0-4,0A9.93,9.93,0,0,0,170.49,434.17Z"/><path class="cls-1" d="M353.5,434.17a9.82,9.82,0,0,0,4.9-1.31,9.93,9.93,0,0,0,3.69-13.53,2,2,0,1,0-3.47,2,5.92,5.92,0,1,1-8.07-2.2,2,2,0,0,0-2-3.48,9.92,9.92,0,0,0,4.94,18.53Z"/><path class="cls-1" d="M76.3,281.24A10.66,10.66,0,1,0,87,291.9,10.67,10.67,0,0,0,76.3,281.24Zm0,17.32A6.66,6.66,0,1,1,83,291.9,6.66,6.66,0,0,1,76.3,298.56Z"/><path class="cls-1" d="M232.6,161.6a10.66,10.66,0,1,0-10.66-10.66A10.67,10.67,0,0,0,232.6,161.6Zm0-17.32a6.66,6.66,0,1,1-6.66,6.66A6.67,6.67,0,0,1,232.6,144.28Z"/><path class="cls-1" d="M326.62,123.34a2,2,0,0,0,2.83-2.82l-3.67-3.68a2,2,0,0,0-2.83,2.83Z"/><path class="cls-1" d="M339.41,136.14a2,2,0,0,0,1.42.58,2,2,0,0,0,1.41-.58,2,2,0,0,0,0-2.83l-3.67-3.67a2,2,0,1,0-2.83,2.82Z"/><path class="cls-1" d="M337.15,123.93a2,2,0,0,0,1.42-.59l3.67-3.67a2,2,0,1,0-2.83-2.83l-3.67,3.68a2,2,0,0,0,1.41,3.41Z"/><path class="cls-1" d="M324.36,136.72a2,2,0,0,0,1.42-.58l3.67-3.68a2,2,0,0,0-2.83-2.82L323,133.31a2,2,0,0,0,0,2.83A2,2,0,0,0,324.36,136.72Z"/><path class="cls-1" d="M95.88,82.8a2,2,0,0,0,1.41.59,2,2,0,0,0,1.42-.59,2,2,0,0,0,0-2.83L95,76.3a2,2,0,0,0-2.83,2.83Z"/><path class="cls-1" d="M108.67,95.59a2,2,0,0,0,1.41.59,2,2,0,0,0,1.42-3.42l-3.68-3.67A2,2,0,1,0,105,91.92Z"/><path class="cls-1" d="M106.41,83.39a2,2,0,0,0,1.41-.59l3.68-3.67a2,2,0,0,0-2.83-2.83L105,80a2,2,0,0,0,1.41,3.42Z"/><path class="cls-1" d="M93.62,96.18A2,2,0,0,0,95,95.59l3.68-3.67a2,2,0,0,0-2.83-2.83L92.2,92.76a2,2,0,0,0,1.42,3.42Z"/><path class="cls-1" d="M403.2,163.48a44.33,44.33,0,1,0,44.32,44.32A44.37,44.37,0,0,0,403.2,163.48Zm0,81.65a37.33,37.33,0,1,1,37.32-37.33A37.37,37.37,0,0,1,403.2,245.13Z"/><path class="cls-1" d="M418.67,194.94l-19.92,19.93-11-11a2,2,0,0,0-2.82,2.82l12.43,12.44a2,2,0,0,0,2.83,0l21.34-21.34a2,2,0,1,0-2.83-2.83Z"/></svg>